<svg width="58" height="59" viewBox="0 0 58 59" fill="none" xmlns="http://www.w3.org/2000/svg">
<circle cx="29" cy="30" r="29" fill="white"/>
<path d="M37.688 41.528V35.576C37.688 35.128 37.656 34.776 37.592 34.52C37.528 34.264 37.32 34.024 36.968 33.8C36.616 33.576 36.088 33.464 35.384 33.464H33.656V32.12H44.888V33.464H44.12C43.16 33.464 42.536 33.656 42.248 34.04C41.96 34.392 41.816 34.904 41.816 35.576V40.472C37.208 45.464 32.184 47.96 26.744 47.96C23.096 47.96 19.848 46.344 17 43.112C14.152 39.88 12.728 36.248 12.728 32.216C12.728 27 14.648 22.424 18.488 18.488C22.36 14.52 26.872 12.536 32.024 12.536C33.944 12.536 36.536 13.08 39.8 14.168L40.088 20.792H38.36C38.36 17.912 35.544 16.472 29.912 16.472C26.04 16.472 22.744 17.544 20.024 19.688C17.336 21.8 15.992 24.824 15.992 28.76C15.992 30.968 16.328 32.984 17 34.808C17.704 36.632 18.584 38.12 19.64 39.272C20.696 40.424 21.88 41.4 23.192 42.2C25.624 43.608 27.976 44.312 30.248 44.312C32.52 44.312 35 43.384 37.688 41.528Z" fill="#343957"/>
</svg>
